<svg xmlns="http://www.w3.org/2000/svg" xmlns:xlink="http://www.w3.org/1999/xlink" version="1.0" x="0px" y="0px" viewBox="0 0 100 125" enable-background="new 0 0 100 100" fill="#000" xml:space="preserve"><path d="M50.4865112,38.9733887c-19.1651001,0-31.185791,18.2075195-31.185791,18.2075195  s9.8685303,18.5653076,32.9321899,18.5653076c17.3745728,0,30.8354492-18.2401123,30.8354492-18.2401123  C81.8084106,55.0716553,69.6516113,38.9733887,50.4865112,38.9733887z M48.2108765,50.8328857  c2.2642822,0,4.098938,1.8358154,4.098938,4.0975342c0,2.2631836-1.8346558,4.098877-4.098938,4.098877  c-2.260437,0-4.0988159-1.8356934-4.0988159-4.098877C44.1120605,52.6687012,45.9504395,50.8328857,48.2108765,50.8328857z   M77.7876587,58.4648438c-6.8659058,6.8597412-16.3086548,11.092041-26.7807617,11.0947266  c-10.4771729-0.0026855-19.9199219-4.2349854-26.7858276-11.0947266c-0.418335-0.4157715-0.8228149-0.8416748-1.2197266-1.2775879  c0.3969116-0.4348145,0.8013916-0.864502,1.2197266-1.27771c4.3434448-4.3408203,9.7237549-7.6195068,15.7391357-9.4501953  c-1.2399902,1.9920654-1.9644775,4.3343506-1.9644775,6.8532715c0,7.182251,5.8239136,13.0085449,13.0111694,13.0085449  c7.1871948,0,13.0111084-5.8262939,13.0111084-13.0085449c0-2.5189209-0.7271118-4.8612061-1.9656372-6.8532715  c6.0140991,1.8320312,11.3944092,5.1107178,15.7352905,9.4501953c0.418335,0.413208,0.8228149,0.8428955,1.2197266,1.27771  C78.6104736,57.6231689,78.2059937,58.0490723,77.7876587,58.4648438z"/><path d="M53.4349365,33.2529297c3.0442505-9.2272949-2.5275269-16.0522461-2.5275269-16.0522461  c2.0600586,8.5662842-2.5276489,16.0522461-2.5276489,16.0522461H53.4349365z"/><path d="M81.9848022,49.0102539l3.5948486,3.5539551c8.6513672-4.4227295,9.4868164-13.192627,9.4868164-13.192627  C90.5101929,46.9116211,81.9848022,49.0102539,81.9848022,49.0102539z"/><path d="M69.6843872,20.7338867c-0.6703491,8.7849121-7.3359985,14.4997559-7.3359985,14.4997559l4.8109131,1.5523682  C72.8898926,28.9396973,69.6843872,20.7338867,69.6843872,20.7338867z"/><path d="M84.3599243,28.7596436c-2.9282837,8.3099365-10.8475952,12.0994873-10.8475952,12.0994873l4.2425537,2.7474365  C85.326355,37.5168457,84.3599243,28.7596436,84.3599243,28.7596436z"/><path d="M36.0023804,36.5466309l4.562561-2.1785889c-1.2321777-9.6380615-9.2006836-13.3953857-9.2006836-13.3953857  C36.9158936,27.8146973,36.0023804,36.5466309,36.0023804,36.5466309z"/><path d="M5.2312012,39.0604248C13.2700806,42.6678467,16.3900146,50.875,16.3900146,50.875l3.0895386-4.0012207  C14.0386963,38.8242188,5.2312012,39.0604248,5.2312012,39.0604248z"/><path d="M25.4634399,42.2766113l4.0233154-3.0618896c-3.1664429-9.1861572-11.7334595-11.2432861-11.7334595-11.2432861  C24.5802612,33.5408936,25.4634399,42.2766113,25.4634399,42.2766113z"/></svg>