<svg xmlns="http://www.w3.org/2000/svg" xmlns:xlink="http://www.w3.org/1999/xlink" version="1.1" x="0px" y="0px" viewBox="0 0 100 125" enable-background="new 0 0 100 100" xml:space="preserve"><path d="M86.105,45.244l-3.699-2.938c1.665-1.962,2.4-3.377,2.434-3.444c0.377-0.736,0.086-1.636-0.648-2.015  c-0.739-0.381-1.639-0.09-2.02,0.644c-0.008,0.015-0.818,1.557-2.702,3.611c-3.84,4.19-12.839,11.219-29.967,11.219c0,0,0,0,0,0l0,0  c-17.127,0-26.127-7.029-29.968-11.219c-1.883-2.054-2.693-3.595-2.699-3.606c-0.377-0.739-1.283-1.03-2.019-0.652  c-0.737,0.377-1.03,1.281-0.652,2.019c0.035,0.067,0.769,1.481,2.434,3.444l-3.7,2.938c-0.649,0.515-0.757,1.459-0.242,2.107  c0.296,0.373,0.734,0.567,1.176,0.567c0.327,0,0.656-0.106,0.932-0.325l3.904-3.1c0.693,0.666,1.488,1.363,2.392,2.077l-3.168,3.8  c-0.53,0.636-0.444,1.583,0.192,2.113c0.28,0.233,0.621,0.348,0.959,0.348c0.43,0,0.856-0.184,1.153-0.54l3.304-3.963  c0.923,0.608,1.921,1.209,3.014,1.79l-2.242,4.485c-0.37,0.741-0.07,1.643,0.671,2.013c0.215,0.107,0.444,0.158,0.669,0.158  c0.55,0,1.08-0.304,1.343-0.829l2.264-4.53c1.163,0.51,2.401,0.988,3.729,1.425l-1.643,5.224c-0.248,0.791,0.191,1.633,0.981,1.881  c0.149,0.047,0.301,0.069,0.45,0.069c0.638,0,1.229-0.409,1.431-1.05l1.663-5.288c1.386,0.356,2.834,0.676,4.383,0.927l-0.781,5.581  c-0.115,0.82,0.457,1.579,1.277,1.693c0.071,0.01,0.141,0.015,0.21,0.015c0.736,0,1.378-0.542,1.483-1.292l0.785-5.603  c1.524,0.16,3.142,0.246,4.813,0.286v5.78c0,0.828,0.671,1.5,1.5,1.5s1.5-0.672,1.5-1.5v-5.78c1.672-0.04,3.289-0.126,4.814-0.286  l0.785,5.603c0.105,0.75,0.747,1.292,1.483,1.292c0.069,0,0.14-0.005,0.21-0.015c0.82-0.115,1.393-0.873,1.277-1.693l-0.782-5.581  c1.549-0.251,2.997-0.57,4.383-0.927l1.663,5.288c0.201,0.641,0.793,1.05,1.431,1.05c0.148,0,0.3-0.022,0.45-0.069  c0.79-0.248,1.229-1.09,0.98-1.881l-1.643-5.224c1.328-0.437,2.566-0.915,3.729-1.424l2.264,4.529  c0.263,0.525,0.793,0.829,1.343,0.829c0.226,0,0.454-0.051,0.67-0.158c0.74-0.37,1.041-1.271,0.671-2.013l-2.241-4.485  c1.093-0.581,2.092-1.182,3.015-1.791l3.305,3.964c0.297,0.356,0.724,0.54,1.153,0.54c0.339,0,0.679-0.114,0.959-0.348  c0.637-0.53,0.723-1.477,0.192-2.113l-3.169-3.801c0.903-0.713,1.698-1.411,2.391-2.076l3.904,3.101  c0.275,0.219,0.604,0.325,0.932,0.325c0.441,0,0.88-0.194,1.176-0.567C86.862,46.703,86.755,45.76,86.105,45.244z"/></svg>